<?xml version="1.0" encoding="utf-8"?>
<!-- Generator: Adobe Illustrator 26.3.1, SVG Export Plug-In . SVG Version: 6.00 Build 0)  -->
<svg version="1.1" id="Layer_1" xmlns="http://www.w3.org/2000/svg" xmlns:xlink="http://www.w3.org/1999/xlink" x="0px" y="0px"
	 viewBox="0 0 512 512" style="enable-background:new 0 0 512 512;" xml:space="preserve">
<style type="text/css">
	.st0{fill:#1C491F;}
	.st1{fill:none;stroke:#A5D193;stroke-width:39;}
	.st2{fill:#1C491F;stroke:#1C491F;stroke-width:64;}
	.st3{fill:none;stroke:#A5D193;stroke-width:28;}
	.st4{fill:#A5D193;}
</style>
<rect class="st0" width="512" height="512"/>
<path class="st1" d="M117.04,166.85l264.38-26.28c28.01-2.78,52.98,17.67,55.76,45.68l10.1,101.6
	c2.78,28.01-17.67,52.98-45.68,55.76l-264.38,26.28c-28.01,2.78-52.98-17.67-55.76-45.68l-10.1-101.6
	C68.57,194.59,89.02,169.63,117.04,166.85z"/>
<path class="st2" d="M266.89,184.21c-9.09,36.27,6.81,101.93,19.33,135.91c27.06-24.06,72.68-69.69,82.85-110.31
	c15.14-60.46-17.88-79.01-34.4-83.14C318.16,122.52,282.64,121.29,266.89,184.21z"/>
<path class="st3" d="M266.89,184.21c-9.09,36.27,6.81,101.93,19.33,135.91c27.06-24.06,72.68-69.69,82.85-110.31
	c15.14-60.46-17.88-79.01-34.4-83.14C318.16,122.52,282.64,121.29,266.89,184.21z"/>
<circle class="st4" cx="322.47" cy="183.19" r="14"/>
</svg>
