<svg width="55" height="41" viewBox="0 0 55 41" fill="none" xmlns="http://www.w3.org/2000/svg">
<rect x="2.735" y="12.3718" width="46.8822" height="26.0208" rx="6.5" transform="rotate(-5.67596 2.735 12.3718)" stroke="#A5D193" stroke-width="5"/>
<path d="M28.313 13.9433C27.1543 18.5691 29.181 26.9424 30.7785 31.2754C34.2299 28.207 40.047 22.3883 41.3447 17.2074C43.2758 9.49769 39.0643 7.13186 36.958 6.6043C34.8518 6.07673 30.3228 5.91924 28.313 13.9433Z" fill="#1C491F" stroke="#1C491F" stroke-width="11"/>
<path d="M28.313 13.9433C27.1543 18.5691 29.181 26.9424 30.7785 31.2754C34.2299 28.207 40.047 22.3883 41.3447 17.2074C43.2758 9.49769 39.0643 7.13186 36.958 6.6043C34.8518 6.07673 30.3228 5.91924 28.313 13.9433Z" stroke="#A5D193" stroke-width="4"/>
<circle cx="35.4019" cy="13.8126" r="1.78508" transform="rotate(14.0619 35.4019 13.8126)" fill="#A5D193"/>
</svg>
